<svg xmlns="http://www.w3.org/2000/svg" xmlns:xlink="http://www.w3.org/1999/xlink" width="500" zoomAndPan="magnify" viewBox="0 0 375 374.999991" height="500" preserveAspectRatio="xMidYMid meet" version="1.0"><defs><filter x="0%" y="0%" width="100%" height="100%" id="b321ccf0da"><feColorMatrix values="0 0 0 0 1 0 0 0 0 1 0 0 0 0 1 0 0 0 1 0" color-interpolation-filters="sRGB"/></filter><clipPath id="dc46913a35"><path d="M 4.238281 0 L 375 0 L 375 375 L 4.238281 375 Z M 4.238281 0 " clip-rule="nonzero"/></clipPath><clipPath id="ca5c83c014"><path d="M 191.738281 0 C 88.1875 0 4.238281 83.945312 4.238281 187.5 C 4.238281 291.054688 88.1875 375 191.738281 375 C 295.292969 375 379.238281 291.054688 379.238281 187.5 C 379.238281 83.945312 295.292969 0 191.738281 0 Z M 191.738281 0 " clip-rule="nonzero"/></clipPath><clipPath id="65523d7eee"><path d="M 0.238281 0 L 371 0 L 371 375 L 0.238281 375 Z M 0.238281 0 " clip-rule="nonzero"/></clipPath><clipPath id="db397a06ce"><path d="M 187.738281 0 C 84.1875 0 0.238281 83.945312 0.238281 187.5 C 0.238281 291.054688 84.1875 375 187.738281 375 C 291.292969 375 375.238281 291.054688 375.238281 187.5 C 375.238281 83.945312 291.292969 0 187.738281 0 Z M 187.738281 0 " clip-rule="nonzero"/></clipPath><clipPath id="c8f476a754"><rect x="0" width="371" y="0" height="375"/></clipPath><clipPath id="03f72659ce"><path d="M 222 137 L 365.863281 137 L 365.863281 281 L 222 281 Z M 222 137 " clip-rule="nonzero"/></clipPath><mask id="1b9bfe52e2"><g filter="url(#b321ccf0da)"><rect x="-37.5" width="450" fill="#000000" y="-37.499999" height="449.999989" fill-opacity="0.5"/></g></mask><clipPath id="c9bed511b1"><path d="M 0.71875 0.28125 L 143.863281 0.28125 L 143.863281 143.320312 L 0.71875 143.320312 Z M 0.71875 0.28125 " clip-rule="nonzero"/></clipPath><clipPath id="2f967e5965"><rect x="0" width="144" y="0" height="144"/></clipPath><clipPath id="b17fcf67a3"><path d="M 17.863281 137 L 161 137 L 161 281 L 17.863281 281 Z M 17.863281 137 " clip-rule="nonzero"/></clipPath><mask id="493e08b70d"><g filter="url(#b321ccf0da)"><rect x="-37.5" width="450" fill="#000000" y="-37.499999" height="449.999989" fill-opacity="0.5"/></g></mask><clipPath id="52114c9629"><path d="M 0.863281 0.28125 L 143.558594 0.28125 L 143.558594 143.320312 L 0.863281 143.320312 Z M 0.863281 0.28125 " clip-rule="nonzero"/></clipPath><clipPath id="033b891ac9"><rect x="0" width="144" y="0" height="144"/></clipPath><clipPath id="f2989bd5a2"><path d="M 80 101 L 305 101 L 305 320.546875 L 80 320.546875 Z M 80 101 " clip-rule="nonzero"/></clipPath><clipPath id="72b6ef0d73"><path d="M 91 28.046875 L 294 28.046875 L 294 200 L 91 200 Z M 91 28.046875 " clip-rule="nonzero"/></clipPath><clipPath id="d50038b83d"><path d="M 90 28.046875 L 183 28.046875 L 183 93 L 90 93 Z M 90 28.046875 " clip-rule="nonzero"/></clipPath><clipPath id="c7998e05f3"><path d="M 202 28.046875 L 295 28.046875 L 295 93 L 202 93 Z M 202 28.046875 " clip-rule="nonzero"/></clipPath></defs><g clip-path="url(#dc46913a35)"><g clip-path="url(#ca5c83c014)"><g transform="matrix(1, 0, 0, 1, 4, 0)"><g clip-path="url(#c8f476a754)"><g clip-path="url(#65523d7eee)"><g clip-path="url(#db397a06ce)"><path fill="#595954" d="M 0.238281 0 L 375.238281 0 L 375.238281 375 L 0.238281 375 Z M 0.238281 0 " fill-opacity="1" fill-rule="nonzero"/></g></g></g></g></g></g><g clip-path="url(#03f72659ce)"><g mask="url(#1b9bfe52e2)"><g transform="matrix(1, 0, 0, 1, 222, 137)"><g clip-path="url(#2f967e5965)"><path fill="#e6e6e6" d="M 29.707031 102.65625 C 60.804688 155.097656 143.542969 138.21875 138.953125 76.3125 C 134.054688 10.253906 60.160156 -12.523438 13.828125 33.394531 C 7.992188 40.445312 11.851562 40.191406 11.066406 43.621094 " fill-opacity="1" fill-rule="evenodd"/><g clip-path="url(#c9bed511b1)"><path stroke-linecap="butt" transform="matrix(0.877888, 0, 0, 0.876536, 210.694195, 173.905565)" fill="none" stroke-linejoin="miter" d="M -206.161937 -81.285129 C -170.738689 -21.457095 -76.491761 -40.713477 -81.720038 -111.339525 C -87.299834 -186.702794 -171.472873 -212.688438 -224.249551 -160.302699 C -230.89725 -152.258781 -226.501048 -152.548451 -227.395417 -148.635675 " stroke="#c8c8c8" stroke-width="5" stroke-opacity="1" stroke-miterlimit="4"/></g></g></g></g></g><g clip-path="url(#b17fcf67a3)"><g mask="url(#493e08b70d)"><g transform="matrix(1, 0, 0, 1, 17, 137)"><g clip-path="url(#033b891ac9)"><path fill="#e6e6e6" d="M 114.945312 102.65625 C 83.851562 155.097656 1.113281 138.21875 5.703125 76.3125 C 10.601562 10.253906 84.496094 -12.523438 130.828125 33.394531 C 136.664062 40.445312 132.804688 40.191406 133.589844 43.621094 " fill-opacity="1" fill-rule="evenodd"/><g clip-path="url(#52114c9629)"><path stroke-linecap="butt" transform="matrix(0.877888, 0, 0, 0.876536, 415.6942, 173.905565)" fill="none" stroke-linejoin="miter" d="M -342.582157 -81.285129 C -378.000955 -21.457095 -472.247883 -40.713477 -467.019606 -111.339525 C -461.43981 -186.702794 -377.266771 -212.688438 -324.490093 -160.302699 C -317.842394 -152.258781 -322.238597 -152.548451 -321.344227 -148.635675 " stroke="#c8c8c8" stroke-width="5" stroke-opacity="1" stroke-miterlimit="4"/></g></g></g></g></g><path fill="#ffff00" d="M 216.691406 286.175781 C 224.246094 282.921875 230.804688 277.488281 236.421875 271.140625 C 242.039062 264.796875 246.589844 257.242188 249.730469 248.851562 C 252.875 240.464844 254.613281 231.242188 254.613281 221.566406 C 254.613281 182.859375 226.800781 151.441406 192.53125 151.441406 C 158.265625 151.441406 130.453125 182.859375 130.453125 221.566406 C 130.453125 231.242188 132.191406 240.464844 135.335938 248.851562 C 138.476562 257.242188 143.023438 264.796875 148.644531 271.140625 C 154.261719 277.488281 160.589844 283.765625 168.375 286.175781 C 176.53125 288.699219 182.808594 292.742188 188.144531 300.703125 C 190.859375 305.921875 191.265625 313.226562 192.519531 319.488281 C 194.191406 312.808594 193.996094 305.714844 196.921875 300.703125 C 203.308594 290.417969 208.046875 289.898438 216.691406 286.175781 Z M 216.691406 286.175781 " fill-opacity="1" fill-rule="nonzero"/><g clip-path="url(#f2989bd5a2)"><path stroke-linecap="butt" transform="matrix(0.877888, 0, 0, 0.876536, 432.6942, 310.905565)" fill="none" stroke-linejoin="miter" d="M -246.048136 -28.213095 C -237.442614 -31.92533 -229.971739 -38.124272 -223.573218 -45.366026 C -217.174696 -52.603324 -211.990915 -61.222126 -208.413438 -70.794612 C -204.831512 -80.362641 -202.851441 -90.884353 -202.851441 -101.923016 C -202.851441 -146.082121 -234.532577 -181.925464 -273.568897 -181.925464 C -312.600768 -181.925464 -344.281904 -146.082121 -344.281904 -101.923016 C -344.281904 -90.884353 -342.301833 -80.362641 -338.719906 -70.794612 C -335.14243 -61.222126 -329.963098 -52.603324 -323.560127 -45.366026 C -317.161606 -38.124272 -309.953257 -30.962733 -301.085209 -28.213095 C -291.794449 -25.334219 -284.643946 -20.721778 -278.565795 -11.639504 C -275.473325 -5.685667 -275.010567 2.647921 -273.582246 9.791634 C -271.677818 2.171079 -271.900298 -5.92186 -268.567549 -11.639504 C -261.292457 -23.373374 -255.895095 -23.966084 -246.048136 -28.213095 Z M -246.048136 -28.213095 " stroke="#000000" stroke-width="10" stroke-opacity="1" stroke-miterlimit="4"/></g><path fill="#ffff00" d="M 243.964844 101.414062 C 243.964844 102.992188 243.882812 104.570312 243.71875 106.144531 C 243.554688 107.714844 243.304688 109.277344 242.976562 110.828125 C 242.648438 112.378906 242.238281 113.910156 241.75 115.421875 C 241.261719 116.933594 240.695312 118.421875 240.050781 119.878906 C 239.40625 121.339844 238.6875 122.769531 237.890625 124.160156 C 237.097656 125.554688 236.234375 126.910156 235.296875 128.222656 C 234.363281 129.539062 233.359375 130.804688 232.289062 132.027344 C 231.222656 133.25 230.09375 134.417969 228.902344 135.535156 C 227.710938 136.652344 226.460938 137.714844 225.160156 138.714844 C 223.859375 139.71875 222.507812 140.660156 221.105469 141.539062 C 219.707031 142.414062 218.261719 143.226562 216.777344 143.972656 C 215.292969 144.71875 213.769531 145.390625 212.214844 145.996094 C 210.65625 146.601562 209.074219 147.132812 207.460938 147.59375 C 205.847656 148.050781 204.21875 148.433594 202.566406 148.742188 C 200.914062 149.050781 199.25 149.28125 197.570312 149.4375 C 195.894531 149.59375 194.214844 149.671875 192.53125 149.671875 C 190.84375 149.671875 189.164062 149.59375 187.488281 149.4375 C 185.8125 149.28125 184.148438 149.050781 182.496094 148.742188 C 180.84375 148.433594 179.210938 148.050781 177.597656 147.59375 C 175.988281 147.132812 174.402344 146.601562 172.847656 145.996094 C 171.289062 145.390625 169.769531 144.71875 168.285156 143.972656 C 166.796875 143.226562 165.355469 142.414062 163.953125 141.539062 C 162.554688 140.660156 161.203125 139.71875 159.898438 138.714844 C 158.597656 137.714844 157.351562 136.652344 156.160156 135.535156 C 154.96875 134.417969 153.839844 133.25 152.769531 132.027344 C 151.703125 130.804688 150.699219 129.539062 149.761719 128.222656 C 148.828125 126.910156 147.960938 125.554688 147.167969 124.160156 C 146.375 122.769531 145.65625 121.339844 145.011719 119.878906 C 144.367188 118.421875 143.796875 116.933594 143.308594 115.421875 C 142.820312 113.910156 142.410156 112.378906 142.082031 110.828125 C 141.753906 109.277344 141.507812 107.714844 141.34375 106.144531 C 141.175781 104.570312 141.09375 102.992188 141.09375 101.414062 C 141.09375 99.832031 141.175781 98.257812 141.34375 96.683594 C 141.507812 95.109375 141.753906 93.550781 142.082031 92 C 142.410156 90.449219 142.820312 88.917969 143.308594 87.40625 C 143.796875 85.894531 144.367188 84.40625 145.011719 82.945312 C 145.65625 81.488281 146.375 80.058594 147.167969 78.664062 C 147.960938 77.273438 148.828125 75.917969 149.761719 74.605469 C 150.699219 73.289062 151.703125 72.023438 152.769531 70.800781 C 153.839844 69.578125 154.96875 68.410156 156.160156 67.289062 C 157.351562 66.171875 158.597656 65.113281 159.898438 64.109375 C 161.203125 63.109375 162.554688 62.167969 163.953125 61.289062 C 165.355469 60.410156 166.796875 59.601562 168.285156 58.855469 C 169.769531 58.109375 171.289062 57.433594 172.847656 56.832031 C 174.402344 56.226562 175.988281 55.695312 177.597656 55.234375 C 179.210938 54.777344 180.84375 54.390625 182.496094 54.085938 C 184.148438 53.777344 185.8125 53.542969 187.488281 53.390625 C 189.164062 53.234375 190.84375 53.15625 192.53125 53.15625 C 194.214844 53.15625 195.894531 53.234375 197.570312 53.390625 C 199.25 53.542969 200.914062 53.777344 202.566406 54.085938 C 204.21875 54.390625 205.847656 54.777344 207.460938 55.234375 C 209.074219 55.695312 210.65625 56.226562 212.214844 56.832031 C 213.769531 57.433594 215.292969 58.109375 216.777344 58.855469 C 218.261719 59.601562 219.707031 60.410156 221.105469 61.289062 C 222.507812 62.167969 223.859375 63.109375 225.160156 64.109375 C 226.460938 65.113281 227.710938 66.171875 228.902344 67.289062 C 230.09375 68.410156 231.222656 69.578125 232.289062 70.800781 C 233.359375 72.023438 234.363281 73.289062 235.296875 74.605469 C 236.234375 75.917969 237.097656 77.273438 237.890625 78.664062 C 238.6875 80.058594 239.40625 81.488281 240.050781 82.945312 C 240.695312 84.40625 241.261719 85.894531 241.75 87.40625 C 242.238281 88.917969 242.648438 90.449219 242.976562 92 C 243.304688 93.550781 243.554688 95.109375 243.71875 96.683594 C 243.882812 98.257812 243.964844 99.832031 243.964844 101.414062 Z M 243.964844 101.414062 " fill-opacity="1" fill-rule="nonzero"/><g clip-path="url(#72b6ef0d73)"><path stroke-linecap="butt" transform="matrix(0.877888, 0, 0, 0.876536, 435.512208, 300.387167)" fill="none" stroke-linejoin="miter" d="M -218.191029 -226.999438 C -218.191029 -225.199027 -218.28447 -223.398615 -218.471354 -221.60266 C -218.658237 -219.811161 -218.943011 -218.028576 -219.316777 -216.259359 C -219.690543 -214.490143 -220.157751 -212.743209 -220.713951 -211.018557 C -221.27015 -209.293905 -221.915342 -207.595993 -222.649526 -205.933731 C -223.383709 -204.267014 -224.202435 -202.635948 -225.110153 -201.049446 C -226.013422 -199.458489 -226.996783 -197.912095 -228.064686 -196.414723 C -229.12814 -194.912895 -230.271687 -193.469 -231.490876 -192.074127 C -232.705617 -190.679254 -233.99155 -189.346771 -235.348678 -188.072222 C -236.705805 -186.797673 -238.129676 -185.585515 -239.611392 -184.44466 C -241.093108 -183.299349 -242.632669 -182.225341 -244.230074 -181.222636 C -245.82303 -180.224388 -247.469382 -179.297444 -249.160229 -178.446259 C -250.851076 -177.595074 -252.586419 -176.828562 -254.357359 -176.13781 C -256.132748 -175.447058 -257.934835 -174.840979 -259.772519 -174.315116 C -261.610203 -173.79371 -263.465685 -173.356977 -265.347865 -173.004916 C -267.230045 -172.652855 -269.125573 -172.389924 -271.0389 -172.211665 C -272.947778 -172.033407 -274.861105 -171.944277 -276.778881 -171.944277 C -278.701108 -171.944277 -280.614435 -172.033407 -282.523312 -172.211665 C -284.432189 -172.389924 -286.327718 -172.652855 -288.209898 -173.004916 C -290.092078 -173.356977 -291.95201 -173.79371 -293.789693 -174.315116 C -295.622928 -174.840979 -297.429464 -175.447058 -299.200404 -176.13781 C -300.975794 -176.828562 -302.706687 -177.595074 -304.397534 -178.446259 C -306.092831 -179.297444 -307.734733 -180.224388 -309.332138 -181.222636 C -310.925094 -182.225341 -312.464655 -183.299349 -313.95082 -184.44466 C -315.432537 -185.585515 -316.851958 -186.797673 -318.209085 -188.072222 C -319.566213 -189.346771 -320.852146 -190.679254 -322.071336 -192.074127 C -323.286076 -193.469 -324.429623 -194.912895 -325.497526 -196.414723 C -326.56098 -197.912095 -327.548791 -199.458489 -328.452059 -201.049446 C -329.355328 -202.635948 -330.174054 -204.267014 -330.908237 -205.933731 C -331.642421 -207.595993 -332.292062 -209.293905 -332.848262 -211.018557 C -333.404462 -212.743209 -333.871669 -214.490143 -334.245435 -216.259359 C -334.619202 -218.028576 -334.899526 -219.811161 -335.086409 -221.60266 C -335.277742 -223.398615 -335.371184 -225.199027 -335.371184 -226.999438 C -335.371184 -228.804307 -335.277742 -230.600262 -335.086409 -232.396217 C -334.899526 -234.192172 -334.619202 -235.970301 -334.245435 -237.739518 C -333.871669 -239.508734 -333.404462 -241.255668 -332.848262 -242.98032 C -332.292062 -244.704971 -331.642421 -246.402884 -330.908237 -248.069602 C -330.174054 -249.731863 -329.355328 -251.362929 -328.452059 -252.953887 C -327.548791 -254.540388 -326.56098 -256.086782 -325.497526 -257.584154 C -324.429623 -259.085982 -323.286076 -260.529877 -322.071336 -261.92475 C -320.852146 -263.319623 -319.566213 -264.652106 -318.209085 -265.931111 C -316.851958 -267.20566 -315.432537 -268.413362 -313.95082 -269.558673 C -312.464655 -270.699528 -310.925094 -271.773536 -309.332138 -272.776241 C -307.734733 -273.778945 -306.092831 -274.701433 -304.397534 -275.552618 C -302.706687 -276.403803 -300.975794 -277.174771 -299.200404 -277.861067 C -297.429464 -278.551818 -295.622928 -279.157898 -293.789693 -279.68376 C -291.95201 -280.205167 -290.092078 -280.646357 -288.209898 -280.993961 C -286.327718 -281.346022 -284.432189 -281.61341 -282.523312 -281.787212 C -280.614435 -281.96547 -278.701108 -282.0546 -276.778881 -282.0546 C -274.861105 -282.0546 -272.947778 -281.96547 -271.0389 -281.787212 C -269.125573 -281.61341 -267.230045 -281.346022 -265.347865 -280.993961 C -263.465685 -280.646357 -261.610203 -280.205167 -259.772519 -279.68376 C -257.934835 -279.157898 -256.132748 -278.551818 -254.357359 -277.861067 C -252.586419 -277.174771 -250.851076 -276.403803 -249.160229 -275.552618 C -247.469382 -274.701433 -245.82303 -273.778945 -244.230074 -272.776241 C -242.632669 -271.773536 -241.093108 -270.699528 -239.611392 -269.558673 C -238.129676 -268.413362 -236.705805 -267.20566 -235.348678 -265.931111 C -233.99155 -264.652106 -232.705617 -263.319623 -231.490876 -261.92475 C -230.271687 -260.529877 -229.12814 -259.085982 -228.064686 -257.584154 C -226.996783 -256.086782 -226.013422 -254.540388 -225.110153 -252.953887 C -224.202435 -251.362929 -223.383709 -249.731863 -222.649526 -248.069602 C -221.915342 -246.402884 -221.27015 -244.704971 -220.713951 -242.98032 C -220.157751 -241.255668 -219.690543 -239.508734 -219.316777 -237.739518 C -218.943011 -235.970301 -218.658237 -234.192172 -218.471354 -232.396217 C -218.28447 -230.600262 -218.191029 -228.804307 -218.191029 -226.999438 Z M -218.191029 -226.999438 " stroke="#000000" stroke-width="10" stroke-opacity="1" stroke-miterlimit="4"/></g><g clip-path="url(#d50038b83d)"><path stroke-linecap="butt" transform="matrix(0.877888, 0, 0, 0.876536, 501.847244, 341.895446)" fill="none" stroke-linejoin="miter" d="M -414.670886 -329.529846 C -413.224767 -323.736442 -417.745558 -318.339664 -423.249711 -317.123049 C -431.432521 -315.318181 -438.925643 -321.717664 -440.474103 -329.529846 C -442.676654 -340.675463 -433.937644 -350.760442 -423.249711 -352.676722 C -408.503744 -355.323862 -395.27954 -343.719228 -392.9524 -329.529846 C -392.009085 -323.754268 -392.756618 -317.76478 -394.968068 -312.359088 " stroke="#000000" stroke-width="5" stroke-opacity="1" stroke-miterlimit="4"/></g><g clip-path="url(#c7998e05f3)"><path stroke-linecap="butt" transform="matrix(-0.877888, 0, 0, 0.876536, -117.548733, 341.895446)" fill="none" stroke-linejoin="miter" d="M -414.669024 -329.529846 C -413.222904 -323.736442 -417.743696 -318.339664 -423.252298 -317.123049 C -431.430658 -315.318181 -438.92823 -321.717664 -440.472241 -329.529846 C -442.679241 -340.675463 -433.935782 -350.760442 -423.252298 -352.676722 C -408.501881 -355.323862 -395.277677 -343.719228 -392.954987 -329.529846 C -392.007223 -323.754268 -392.759205 -317.76478 -394.966205 -312.359088 " stroke="#000000" stroke-width="5" stroke-opacity="1" stroke-miterlimit="4"/></g><path fill="#000000" d="M 145.746094 174.734375 C 177.351562 178.296875 208.957031 177.847656 240.558594 174.734375 L 247.582031 190.589844 L 249.339844 199.917969 C 211.296875 203.660156 173.253906 203.691406 135.214844 199.917969 C 135.214844 199.917969 133.457031 211.109375 133.457031 199.917969 C 133.457031 188.726562 138.722656 188.726562 138.722656 188.726562 Z M 145.746094 174.734375 " fill-opacity="1" fill-rule="nonzero"/><path fill="#000000" d="M 130.761719 224.792969 C 170.9375 227.957031 211.820312 228.304688 253.667969 224.792969 L 248.398438 240.648438 L 250.15625 249.976562 C 211.679688 253.886719 173.671875 253.578125 136.03125 249.976562 C 136.03125 249.976562 134.273438 261.167969 134.273438 249.976562 L 134.273438 238.785156 Z M 130.761719 224.792969 " fill-opacity="1" fill-rule="nonzero"/><path fill="#000000" d="M 153.585938 274.742188 C 178.984375 278.636719 204.378906 278.359375 229.777344 274.742188 L 228.648438 281.507812 L 213.160156 287.078125 L 192.464844 301.042969 C 195.542969 300.957031 165.503906 284.285156 167.132812 288.097656 Z M 153.585938 274.742188 " fill-opacity="1" fill-rule="nonzero"/><path fill="#000000" d="M 183.753906 101.414062 C 183.757812 101.992188 183.703125 102.5625 183.59375 103.128906 C 183.484375 103.695312 183.316406 104.246094 183.097656 104.78125 C 182.878906 105.316406 182.609375 105.820312 182.289062 106.304688 C 181.96875 106.785156 181.605469 107.230469 181.199219 107.636719 C 180.789062 108.046875 180.347656 108.414062 179.867188 108.734375 C 179.386719 109.054688 178.878906 109.328125 178.34375 109.550781 C 177.8125 109.769531 177.261719 109.9375 176.695312 110.050781 C 176.125 110.164062 175.554688 110.21875 174.976562 110.21875 C 174.398438 110.21875 173.824219 110.164062 173.257812 110.050781 C 172.691406 109.9375 172.140625 109.769531 171.605469 109.550781 C 171.074219 109.328125 170.566406 109.054688 170.085938 108.734375 C 169.605469 108.414062 169.160156 108.046875 168.753906 107.636719 C 168.34375 107.230469 167.980469 106.785156 167.660156 106.304688 C 167.34375 105.820312 167.074219 105.316406 166.851562 104.78125 C 166.632812 104.246094 166.46875 103.695312 166.359375 103.128906 C 166.25 102.5625 166.195312 101.992188 166.195312 101.414062 C 166.195312 100.835938 166.25 100.261719 166.359375 99.695312 C 166.46875 99.128906 166.632812 98.578125 166.851562 98.046875 C 167.074219 97.511719 167.34375 97.003906 167.660156 96.523438 C 167.980469 96.042969 168.34375 95.597656 168.753906 95.1875 C 169.160156 94.777344 169.605469 94.414062 170.085938 94.089844 C 170.566406 93.769531 171.074219 93.5 171.605469 93.277344 C 172.140625 93.054688 172.691406 92.886719 173.257812 92.773438 C 173.824219 92.660156 174.398438 92.605469 174.976562 92.605469 C 175.554688 92.605469 176.125 92.660156 176.695312 92.773438 C 177.261719 92.886719 177.8125 93.054688 178.34375 93.277344 C 178.878906 93.5 179.386719 93.769531 179.867188 94.089844 C 180.347656 94.414062 180.789062 94.777344 181.199219 95.1875 C 181.605469 95.597656 181.96875 96.042969 182.289062 96.523438 C 182.609375 97.003906 182.878906 97.511719 183.097656 98.046875 C 183.316406 98.578125 183.484375 99.128906 183.59375 99.695312 C 183.703125 100.261719 183.757812 100.835938 183.753906 101.414062 Z M 183.753906 101.414062 " fill-opacity="1" fill-rule="nonzero"/><path fill="#000000" d="M 218.871094 101.414062 C 218.871094 101.992188 218.820312 102.5625 218.707031 103.128906 C 218.597656 103.695312 218.433594 104.246094 218.214844 104.78125 C 217.996094 105.316406 217.726562 105.820312 217.40625 106.304688 C 217.085938 106.785156 216.722656 107.230469 216.3125 107.636719 C 215.90625 108.046875 215.460938 108.414062 214.980469 108.734375 C 214.5 109.054688 213.996094 109.328125 213.460938 109.550781 C 212.925781 109.769531 212.375 109.9375 211.808594 110.050781 C 211.242188 110.164062 210.667969 110.21875 210.089844 110.21875 C 209.511719 110.21875 208.941406 110.164062 208.375 110.050781 C 207.804688 109.9375 207.257812 109.769531 206.722656 109.550781 C 206.1875 109.328125 205.679688 109.054688 205.199219 108.734375 C 204.722656 108.414062 204.277344 108.046875 203.867188 107.636719 C 203.460938 107.230469 203.097656 106.785156 202.777344 106.304688 C 202.457031 105.820312 202.1875 105.316406 201.96875 104.78125 C 201.75 104.246094 201.585938 103.695312 201.472656 103.128906 C 201.363281 102.5625 201.308594 101.992188 201.3125 101.414062 C 201.308594 100.835938 201.363281 100.261719 201.472656 99.695312 C 201.585938 99.128906 201.75 98.578125 201.96875 98.046875 C 202.1875 97.511719 202.457031 97.003906 202.777344 96.523438 C 203.097656 96.042969 203.460938 95.597656 203.867188 95.1875 C 204.277344 94.777344 204.722656 94.414062 205.199219 94.089844 C 205.679688 93.769531 206.1875 93.5 206.722656 93.277344 C 207.257812 93.054688 207.804688 92.886719 208.375 92.773438 C 208.941406 92.660156 209.511719 92.605469 210.089844 92.605469 C 210.667969 92.605469 211.242188 92.660156 211.808594 92.773438 C 212.375 92.886719 212.925781 93.054688 213.460938 93.277344 C 213.996094 93.5 214.5 93.769531 214.980469 94.089844 C 215.460938 94.414062 215.90625 94.777344 216.3125 95.1875 C 216.722656 95.597656 217.085938 96.042969 217.40625 96.523438 C 217.726562 97.003906 217.996094 97.511719 218.214844 98.046875 C 218.433594 98.578125 218.597656 99.128906 218.707031 99.695312 C 218.820312 100.261719 218.871094 100.835938 218.871094 101.414062 Z M 218.871094 101.414062 " fill-opacity="1" fill-rule="nonzero"/><path fill="#000000" d="M 179.527344 118.777344 C 179.527344 118.777344 186.429688 131.867188 191.820312 131.867188 C 197.210938 131.867188 204.109375 118.777344 204.109375 118.777344 " fill-opacity="1" fill-rule="nonzero"/></svg>