<svg xmlns="http://www.w3.org/2000/svg" xmlns:xlink="http://www.w3.org/1999/xlink" width="500" zoomAndPan="magnify" viewBox="0 0 375 374.999991" height="500" preserveAspectRatio="xMidYMid meet" version="1.0"><defs><filter x="0%" y="0%" width="100%" height="100%" id="54ba56fb09"><feColorMatrix values="0 0 0 0 1 0 0 0 0 1 0 0 0 0 1 0 0 0 1 0" color-interpolation-filters="sRGB"/></filter><clipPath id="c2ae48ce04"><path d="M 220 148 L 370.988281 148 L 370.988281 300 L 220 300 Z M 220 148 " clip-rule="nonzero"/></clipPath><mask id="281c6ace57"><g filter="url(#54ba56fb09)"><rect x="-37.5" width="450" fill="#000000" y="-37.499999" height="449.999989" fill-opacity="0.5"/></g></mask><clipPath id="4509a71373"><path d="M 0.078125 0.320312 L 150.988281 0.320312 L 150.988281 151.039062 L 0.078125 151.039062 Z M 0.078125 0.320312 " clip-rule="nonzero"/></clipPath><clipPath id="c079130207"><rect x="0" width="151" y="0" height="152"/></clipPath><clipPath id="7720c723f5"><path d="M 4.238281 148 L 155 148 L 155 300 L 4.238281 300 Z M 4.238281 148 " clip-rule="nonzero"/></clipPath><mask id="6f6a20f7fa"><g filter="url(#54ba56fb09)"><rect x="-37.5" width="450" fill="#000000" y="-37.499999" height="449.999989" fill-opacity="0.5"/></g></mask><clipPath id="da7c68451c"><path d="M 0.238281 0.320312 L 150.800781 0.320312 L 150.800781 151.039062 L 0.238281 151.039062 Z M 0.238281 0.320312 " clip-rule="nonzero"/></clipPath><clipPath id="9db1c2c740"><rect x="0" width="151" y="0" height="152"/></clipPath><clipPath id="f72155ad6f"><path d="M 70 111 L 307 111 L 307 341.476562 L 70 341.476562 Z M 70 111 " clip-rule="nonzero"/></clipPath><clipPath id="9ae41ddbe4"><path d="M 81 33.226562 L 295 33.226562 L 295 214 L 81 214 Z M 81 33.226562 " clip-rule="nonzero"/></clipPath><clipPath id="085766a8cf"><path d="M 80 33.226562 L 178 33.226562 L 178 102 L 80 102 Z M 80 33.226562 " clip-rule="nonzero"/></clipPath><clipPath id="4107626fdf"><path d="M 198 33.226562 L 296 33.226562 L 296 102 L 198 102 Z M 198 33.226562 " clip-rule="nonzero"/></clipPath></defs><g clip-path="url(#c2ae48ce04)"><g mask="url(#281c6ace57)"><g transform="matrix(1, 0, 0, 1, 220, 148)"><g clip-path="url(#c079130207)"><path fill="#e6e6e6" d="M 30.6875 108.230469 C 63.457031 163.496094 150.65625 145.707031 145.816406 80.46875 C 140.65625 10.851562 62.777344 -13.152344 13.949219 35.242188 C 7.800781 42.667969 11.867188 42.402344 11.039062 46.019531 " fill-opacity="1" fill-rule="evenodd"/><g clip-path="url(#4509a71373)"><path stroke-linecap="butt" transform="matrix(0.925203, 0, 0, 0.923734, 221.425748, 183.317165)" fill="none" stroke-linejoin="miter" d="M -206.15827 -81.286072 C -170.739523 -21.457557 -76.490779 -40.715336 -81.721895 -111.339879 C -87.299218 -186.704864 -171.474159 -212.690602 -224.249739 -160.300478 C -230.895241 -152.261603 -226.50009 -152.549158 -227.395164 -148.633325 " stroke="#c8c8c8" stroke-width="5" stroke-opacity="1" stroke-miterlimit="4"/></g></g></g></g></g><g clip-path="url(#7720c723f5)"><g mask="url(#6f6a20f7fa)"><g transform="matrix(1, 0, 0, 1, 4, 148)"><g clip-path="url(#9db1c2c740)"><path fill="#e6e6e6" d="M 120.46875 108.230469 C 87.695312 163.496094 0.5 145.707031 5.335938 80.46875 C 10.5 10.851562 88.378906 -13.152344 137.207031 35.242188 C 143.355469 42.667969 139.289062 42.402344 140.117188 46.019531 " fill-opacity="1" fill-rule="evenodd"/><g clip-path="url(#da7c68451c)"><path stroke-linecap="butt" transform="matrix(0.925203, 0, 0, 0.923734, 437.425736, 183.317165)" fill="none" stroke-linejoin="miter" d="M -342.581023 -81.286072 C -378.003992 -21.457557 -472.248514 -40.715336 -467.02162 -111.339879 C -461.440075 -186.704864 -377.265134 -212.690602 -324.489554 -160.300478 C -317.844052 -152.261603 -322.239203 -152.549158 -321.344129 -148.633325 " stroke="#c8c8c8" stroke-width="5" stroke-opacity="1" stroke-miterlimit="4"/></g></g></g></g></g><path fill="#ffff00" d="M 213.78125 305.253906 C 221.742188 301.824219 228.65625 296.101562 234.578125 289.414062 C 240.496094 282.726562 245.289062 274.761719 248.601562 265.921875 C 251.914062 257.082031 253.746094 247.363281 253.746094 237.167969 C 253.746094 196.375 224.433594 163.269531 188.320312 163.269531 C 152.207031 163.269531 122.894531 196.375 122.894531 237.167969 C 122.894531 247.363281 124.726562 257.082031 128.039062 265.921875 C 131.351562 274.761719 136.144531 282.726562 142.066406 289.414062 C 147.984375 296.101562 154.65625 302.714844 162.863281 305.253906 C 171.457031 307.914062 178.074219 312.179688 183.695312 320.566406 C 186.558594 326.066406 186.984375 333.761719 188.308594 340.363281 C 190.070312 333.324219 189.863281 325.847656 192.945312 320.566406 C 199.675781 309.726562 204.667969 309.179688 213.78125 305.253906 Z M 213.78125 305.253906 " fill-opacity="1" fill-rule="nonzero"/><g clip-path="url(#f72155ad6f)"><path stroke-linecap="butt" transform="matrix(0.925203, 0, 0, 0.923734, 441.425736, 331.317165)" fill="none" stroke-linejoin="miter" d="M -246.048152 -28.215118 C -237.443622 -31.92797 -229.970599 -38.123105 -223.569977 -45.362745 C -217.173577 -52.602384 -211.993126 -61.224829 -208.41283 -70.794515 C -204.832535 -80.364202 -202.852395 -90.885361 -202.852395 -101.922428 C -202.852395 -146.083382 -234.534632 -181.922135 -273.567451 -181.922135 C -312.600271 -181.922135 -344.282507 -146.083382 -344.282507 -101.922428 C -344.282507 -90.885361 -342.302368 -80.364202 -338.722072 -70.794515 C -335.141777 -61.224829 -329.961326 -52.602384 -323.560703 -45.362745 C -317.164303 -38.123105 -309.953048 -30.963812 -301.082528 -28.215118 C -291.794026 -25.335331 -284.641879 -20.717524 -278.566354 -11.638373 C -275.471594 -5.684277 -275.011391 2.646383 -273.580117 9.792989 C -271.675974 2.172761 -271.899743 -5.921088 -268.568548 -11.638373 C -261.293962 -23.373186 -255.898187 -23.965212 -246.048152 -28.215118 Z M -246.048152 -28.215118 " stroke="#000000" stroke-width="10" stroke-opacity="1" stroke-miterlimit="4"/></g><path fill="#ffff00" d="M 242.527344 110.542969 C 242.527344 112.210938 242.4375 113.871094 242.265625 115.53125 C 242.089844 117.1875 241.832031 118.832031 241.484375 120.464844 C 241.136719 122.101562 240.707031 123.714844 240.191406 125.308594 C 239.675781 126.902344 239.078125 128.46875 238.398438 130.007812 C 237.71875 131.546875 236.960938 133.050781 236.125 134.519531 C 235.289062 135.988281 234.375 137.414062 233.390625 138.796875 C 232.402344 140.183594 231.347656 141.519531 230.222656 142.808594 C 229.09375 144.09375 227.902344 145.328125 226.648438 146.503906 C 225.394531 147.683594 224.078125 148.800781 222.707031 149.855469 C 221.335938 150.914062 219.910156 151.902344 218.433594 152.828125 C 216.957031 153.753906 215.4375 154.609375 213.871094 155.394531 C 212.304688 156.179688 210.703125 156.890625 209.0625 157.527344 C 207.421875 158.167969 205.753906 158.726562 204.054688 159.210938 C 202.355469 159.695312 200.632812 160.097656 198.894531 160.421875 C 197.152344 160.746094 195.398438 160.992188 193.632812 161.15625 C 191.863281 161.316406 190.09375 161.398438 188.316406 161.398438 C 186.542969 161.398438 184.769531 161.316406 183.003906 161.15625 C 181.238281 160.992188 179.484375 160.746094 177.742188 160.421875 C 176 160.097656 174.28125 159.695312 172.582031 159.210938 C 170.882812 158.726562 169.214844 158.167969 167.574219 157.527344 C 165.933594 156.890625 164.332031 156.179688 162.765625 155.394531 C 161.199219 154.609375 159.679688 153.753906 158.203125 152.828125 C 156.726562 151.902344 155.300781 150.914062 153.929688 149.855469 C 152.554688 148.800781 151.242188 147.683594 149.988281 146.503906 C 148.730469 145.328125 147.542969 144.09375 146.414062 142.808594 C 145.289062 141.519531 144.230469 140.183594 143.246094 138.796875 C 142.257812 137.414062 141.347656 135.988281 140.511719 134.519531 C 139.675781 133.050781 138.917969 131.546875 138.238281 130.007812 C 137.558594 128.46875 136.960938 126.902344 136.445312 125.308594 C 135.929688 123.714844 135.5 122.101562 135.152344 120.464844 C 134.804688 118.832031 134.546875 117.1875 134.371094 115.53125 C 134.199219 113.871094 134.109375 112.210938 134.109375 110.542969 C 134.109375 108.878906 134.199219 107.21875 134.371094 105.558594 C 134.546875 103.902344 134.804688 102.257812 135.152344 100.625 C 135.5 98.988281 135.929688 97.375 136.445312 95.78125 C 136.960938 94.1875 137.558594 92.621094 138.238281 91.082031 C 138.917969 89.542969 139.675781 88.039062 140.511719 86.570312 C 141.347656 85.101562 142.257812 83.675781 143.246094 82.292969 C 144.230469 80.90625 145.289062 79.570312 146.414062 78.28125 C 147.542969 76.996094 148.730469 75.761719 149.988281 74.585938 C 151.242188 73.40625 152.554688 72.289062 153.929688 71.234375 C 155.300781 70.175781 156.726562 69.1875 158.203125 68.261719 C 159.679688 67.335938 161.199219 66.480469 162.765625 65.695312 C 164.332031 64.910156 165.933594 64.199219 167.574219 63.5625 C 169.214844 62.921875 170.882812 62.363281 172.582031 61.878906 C 174.28125 61.394531 176 60.992188 177.742188 60.667969 C 179.484375 60.34375 181.238281 60.097656 183.003906 59.933594 C 184.769531 59.769531 186.542969 59.691406 188.316406 59.691406 C 190.09375 59.691406 191.863281 59.769531 193.632812 59.933594 C 195.398438 60.097656 197.152344 60.34375 198.894531 60.667969 C 200.632812 60.992188 202.355469 61.394531 204.054688 61.878906 C 205.753906 62.363281 207.421875 62.921875 209.0625 63.5625 C 210.703125 64.199219 212.304688 64.910156 213.871094 65.695312 C 215.4375 66.480469 216.957031 67.335938 218.433594 68.261719 C 219.910156 69.1875 221.335938 70.175781 222.707031 71.234375 C 224.078125 72.289062 225.394531 73.40625 226.648438 74.585938 C 227.902344 75.761719 229.09375 76.996094 230.222656 78.28125 C 231.347656 79.570312 232.402344 80.90625 233.390625 82.292969 C 234.375 83.675781 235.289062 85.101562 236.125 86.570312 C 236.960938 88.039062 237.71875 89.542969 238.398438 91.082031 C 239.078125 92.621094 239.675781 94.1875 240.191406 95.78125 C 240.707031 97.375 241.136719 98.988281 241.484375 100.625 C 241.832031 102.257812 242.089844 103.902344 242.265625 105.558594 C 242.4375 107.21875 242.527344 108.878906 242.527344 110.542969 Z M 242.527344 110.542969 " fill-opacity="1" fill-rule="nonzero"/><g clip-path="url(#9ae41ddbe4)"><path stroke-linecap="butt" transform="matrix(0.925203, 0, 0, 0.923734, 444.395639, 320.232373)" fill="none" stroke-linejoin="miter" d="M -218.188115 -227.00197 C -218.188115 -225.196289 -218.285222 -223.399065 -218.470992 -221.601842 C -218.660984 -219.808847 -218.939639 -218.028538 -219.315401 -216.260916 C -219.691163 -214.489065 -220.155588 -212.742587 -220.712899 -211.017252 C -221.270209 -209.291917 -221.916182 -207.596184 -222.650818 -205.930052 C -223.385454 -204.26392 -224.204531 -202.635847 -225.108049 -201.045833 C -226.011567 -199.455818 -226.999526 -197.912321 -228.063481 -196.415339 C -229.131659 -194.914129 -230.271612 -193.467892 -231.487561 -192.072401 C -232.707733 -190.681139 -233.995457 -189.34485 -235.350734 -188.071993 C -236.706011 -186.794907 -238.12884 -185.585481 -239.610779 -184.443716 C -241.092717 -183.297721 -242.633764 -182.227845 -244.229697 -181.225628 C -245.825631 -180.223412 -247.468007 -179.297313 -249.161048 -178.447332 C -250.854088 -177.597351 -252.585127 -176.827716 -254.358387 -176.138428 C -256.131646 -175.444912 -257.93446 -174.840199 -259.77105 -174.315832 C -261.607641 -173.791466 -263.469563 -173.355903 -265.348374 -173.004916 C -267.231406 -172.653929 -269.127105 -172.387517 -271.03547 -172.209909 C -272.948057 -172.03653 -274.860644 -171.947726 -276.781676 -171.947726 C -278.698485 -171.947726 -280.615294 -172.03653 -282.523659 -172.209909 C -284.432024 -172.387517 -286.327723 -172.653929 -288.210755 -173.004916 C -290.093788 -173.355903 -291.951489 -173.791466 -293.788079 -174.315832 C -295.624669 -174.840199 -297.427483 -175.444912 -299.200742 -176.138428 C -300.974002 -176.827716 -302.705041 -177.597351 -304.398082 -178.447332 C -306.091122 -179.297313 -307.733498 -180.223412 -309.329432 -181.225628 C -310.925365 -182.227845 -312.466412 -183.297721 -313.948351 -184.443716 C -315.434511 -185.585481 -316.853119 -186.794907 -318.208395 -188.071993 C -319.567894 -189.34485 -320.851397 -190.681139 -322.071568 -192.072401 C -323.287517 -193.467892 -324.431692 -194.914129 -325.495648 -196.415339 C -326.563825 -197.912321 -327.547562 -199.455818 -328.45108 -201.045833 C -329.354598 -202.635847 -330.173675 -204.26392 -330.908311 -205.930052 C -331.642947 -207.596184 -332.28892 -209.291917 -332.846231 -211.017252 C -333.403541 -212.742587 -333.867966 -214.489065 -334.243728 -216.260916 C -334.61949 -218.028538 -334.898145 -219.808847 -335.088137 -221.601842 C -335.273907 -223.399065 -335.371014 -225.196289 -335.371014 -227.00197 C -335.371014 -228.803422 -335.273907 -230.600646 -335.088137 -232.397869 C -334.898145 -234.190864 -334.61949 -235.971173 -334.243728 -237.738795 C -333.867966 -239.510646 -333.403541 -241.257124 -332.846231 -242.982459 C -332.28892 -244.707794 -331.642947 -246.403527 -330.908311 -248.069659 C -330.173675 -249.735791 -329.354598 -251.363864 -328.45108 -252.953878 C -327.547562 -254.543892 -326.563825 -256.08739 -325.495648 -257.584372 C -324.431692 -259.085582 -323.287517 -260.531818 -322.071568 -261.92731 C -320.851397 -263.318572 -319.567894 -264.654861 -318.208395 -265.927718 C -316.853119 -267.204804 -315.434511 -268.41423 -313.948351 -269.555995 C -312.466412 -270.701989 -310.925365 -271.771866 -309.329432 -272.774083 C -307.733498 -273.776299 -306.091122 -274.702398 -304.398082 -275.552379 C -302.705041 -276.40236 -300.974002 -277.171994 -299.200742 -277.861282 C -297.427483 -278.554799 -295.624669 -279.159512 -293.788079 -279.683879 C -291.951489 -280.208245 -290.093788 -280.643807 -288.210755 -280.994795 C -286.327723 -281.345782 -284.432024 -281.612194 -282.523659 -281.789802 C -280.615294 -281.96741 -278.698485 -282.051985 -276.781676 -282.051985 C -274.860644 -282.051985 -272.948057 -281.96741 -271.03547 -281.789802 C -269.127105 -281.612194 -267.231406 -281.345782 -265.348374 -280.994795 C -263.469563 -280.643807 -261.607641 -280.208245 -259.77105 -279.683879 C -257.93446 -279.159512 -256.131646 -278.554799 -254.358387 -277.861282 C -252.585127 -277.171994 -250.854088 -276.40236 -249.161048 -275.552379 C -247.468007 -274.702398 -245.825631 -273.776299 -244.229697 -272.774083 C -242.633764 -271.771866 -241.092717 -270.701989 -239.610779 -269.555995 C -238.12884 -268.41423 -236.706011 -267.204804 -235.350734 -265.927718 C -233.995457 -264.654861 -232.707733 -263.318572 -231.487561 -261.92731 C -230.271612 -260.531818 -229.131659 -259.085582 -228.063481 -257.584372 C -226.999526 -256.08739 -226.011567 -254.543892 -225.108049 -252.953878 C -224.204531 -251.363864 -223.385454 -249.735791 -222.650818 -248.069659 C -221.916182 -246.403527 -221.270209 -244.707794 -220.712899 -242.982459 C -220.155588 -241.257124 -219.691163 -239.510646 -219.315401 -237.738795 C -218.939639 -235.971173 -218.660984 -234.190864 -218.470992 -232.397869 C -218.285222 -230.600646 -218.188115 -228.803422 -218.188115 -227.00197 Z M -218.188115 -227.00197 " stroke="#000000" stroke-width="10" stroke-opacity="1" stroke-miterlimit="4"/></g><g clip-path="url(#085766a8cf)"><path stroke-linecap="butt" transform="matrix(0.925203, 0, 0, 0.923734, 514.305859, 363.975768)" fill="none" stroke-linejoin="miter" d="M -414.669559 -329.529596 C -413.225619 -323.736193 -417.743209 -318.340294 -423.25298 -317.126639 C -431.431084 -315.320958 -438.929438 -321.719074 -440.474707 -329.529596 C -442.678616 -340.672382 -433.938979 -350.762207 -423.25298 -352.677836 C -408.505371 -355.320812 -395.2777 -343.717091 -392.955574 -329.529596 C -392.005614 -323.757337 -392.757138 -317.765182 -394.96949 -312.356596 " stroke="#000000" stroke-width="5" stroke-opacity="1" stroke-miterlimit="4"/></g><g clip-path="url(#4107626fdf)"><path stroke-linecap="butt" transform="matrix(-0.925203, 0, 0, 0.923734, -138.472986, 363.975768)" fill="none" stroke-linejoin="miter" d="M -414.668649 -329.529596 C -413.224709 -323.736193 -417.746521 -318.340294 -423.25207 -317.126639 C -431.430174 -315.320958 -438.928528 -321.719074 -440.473797 -329.529596 C -442.677706 -340.672382 -433.938069 -350.762207 -423.25207 -352.677836 C -408.504462 -355.320812 -395.281012 -343.717091 -392.954664 -329.529596 C -392.008926 -323.757337 -392.756228 -317.765182 -394.968581 -312.356596 " stroke="#000000" stroke-width="5" stroke-opacity="1" stroke-miterlimit="4"/></g><path fill="#000000" d="M 139.015625 187.816406 C 172.320312 191.566406 205.628906 191.09375 238.9375 187.816406 L 246.335938 204.523438 L 248.1875 214.355469 C 208.097656 218.296875 168.003906 218.328125 127.910156 214.355469 C 127.910156 214.355469 126.0625 226.148438 126.0625 214.355469 C 126.0625 202.558594 131.613281 202.558594 131.613281 202.558594 Z M 139.015625 187.816406 " fill-opacity="1" fill-rule="nonzero"/><path fill="#000000" d="M 123.21875 240.570312 C 165.5625 243.902344 208.648438 244.269531 252.75 240.570312 L 247.199219 257.277344 L 249.046875 267.109375 C 208.496094 271.230469 168.441406 270.902344 128.773438 267.109375 C 128.773438 267.109375 126.921875 278.902344 126.921875 267.109375 L 126.921875 255.3125 Z M 123.21875 240.570312 " fill-opacity="1" fill-rule="nonzero"/><path fill="#000000" d="M 147.277344 293.207031 C 174.042969 297.308594 200.804688 297.019531 227.570312 293.207031 L 226.382812 300.339844 L 210.058594 306.207031 L 188.25 320.921875 C 191.492188 320.832031 159.835938 303.261719 161.550781 307.28125 Z M 147.277344 293.207031 " fill-opacity="1" fill-rule="nonzero"/><path fill="#000000" d="M 179.070312 110.542969 C 179.074219 111.152344 179.015625 111.753906 178.898438 112.351562 C 178.78125 112.949219 178.609375 113.53125 178.378906 114.09375 C 178.148438 114.65625 177.863281 115.191406 177.527344 115.699219 C 177.1875 116.203125 176.804688 116.671875 176.375 117.105469 C 175.945312 117.535156 175.476562 117.921875 174.972656 118.261719 C 174.464844 118.597656 173.929688 118.886719 173.367188 119.117188 C 172.804688 119.351562 172.226562 119.527344 171.628906 119.648438 C 171.03125 119.765625 170.425781 119.824219 169.816406 119.824219 C 169.207031 119.824219 168.605469 119.765625 168.007812 119.648438 C 167.410156 119.527344 166.828125 119.351562 166.265625 119.117188 C 165.703125 118.886719 165.167969 118.597656 164.664062 118.261719 C 164.15625 117.921875 163.691406 117.535156 163.257812 117.105469 C 162.828125 116.671875 162.445312 116.203125 162.109375 115.699219 C 161.773438 115.191406 161.488281 114.65625 161.257812 114.09375 C 161.027344 113.53125 160.851562 112.949219 160.734375 112.351562 C 160.621094 111.753906 160.5625 111.152344 160.566406 110.542969 C 160.5625 109.9375 160.621094 109.332031 160.734375 108.734375 C 160.851562 108.136719 161.027344 107.558594 161.257812 106.996094 C 161.488281 106.433594 161.773438 105.898438 162.109375 105.390625 C 162.445312 104.882812 162.828125 104.414062 163.257812 103.984375 C 163.691406 103.550781 164.15625 103.167969 164.664062 102.828125 C 165.167969 102.488281 165.703125 102.203125 166.265625 101.96875 C 166.828125 101.734375 167.410156 101.558594 168.007812 101.441406 C 168.605469 101.320312 169.207031 101.261719 169.816406 101.261719 C 170.425781 101.261719 171.03125 101.320312 171.628906 101.441406 C 172.226562 101.558594 172.804688 101.734375 173.367188 101.96875 C 173.929688 102.203125 174.464844 102.488281 174.972656 102.828125 C 175.476562 103.167969 175.945312 103.550781 176.375 103.984375 C 176.804688 104.414062 177.1875 104.882812 177.527344 105.390625 C 177.863281 105.898438 178.148438 106.433594 178.378906 106.996094 C 178.609375 107.558594 178.78125 108.136719 178.898438 108.734375 C 179.015625 109.332031 179.074219 109.9375 179.070312 110.542969 Z M 179.070312 110.542969 " fill-opacity="1" fill-rule="nonzero"/><path fill="#000000" d="M 216.078125 110.542969 C 216.082031 111.152344 216.023438 111.753906 215.90625 112.351562 C 215.789062 112.949219 215.617188 113.53125 215.386719 114.09375 C 215.15625 114.65625 214.871094 115.191406 214.535156 115.699219 C 214.195312 116.203125 213.8125 116.671875 213.382812 117.105469 C 212.953125 117.535156 212.484375 117.921875 211.980469 118.261719 C 211.472656 118.597656 210.9375 118.886719 210.375 119.117188 C 209.8125 119.351562 209.234375 119.527344 208.636719 119.648438 C 208.039062 119.765625 207.433594 119.824219 206.824219 119.824219 C 206.214844 119.824219 205.613281 119.765625 205.015625 119.648438 C 204.417969 119.527344 203.835938 119.351562 203.273438 119.117188 C 202.710938 118.886719 202.175781 118.597656 201.671875 118.261719 C 201.164062 117.921875 200.699219 117.535156 200.269531 117.105469 C 199.839844 116.671875 199.453125 116.203125 199.117188 115.699219 C 198.78125 115.191406 198.496094 114.65625 198.265625 114.09375 C 198.035156 113.53125 197.859375 112.949219 197.742188 112.351562 C 197.628906 111.753906 197.570312 111.152344 197.574219 110.542969 C 197.570312 109.9375 197.628906 109.332031 197.742188 108.734375 C 197.859375 108.136719 198.035156 107.558594 198.265625 106.996094 C 198.496094 106.433594 198.78125 105.898438 199.117188 105.390625 C 199.453125 104.882812 199.839844 104.414062 200.269531 103.984375 C 200.699219 103.550781 201.164062 103.167969 201.671875 102.828125 C 202.179688 102.488281 202.710938 102.203125 203.273438 101.96875 C 203.835938 101.734375 204.417969 101.558594 205.015625 101.441406 C 205.613281 101.320312 206.214844 101.261719 206.824219 101.261719 C 207.433594 101.261719 208.039062 101.320312 208.636719 101.441406 C 209.234375 101.558594 209.8125 101.734375 210.375 101.96875 C 210.9375 102.203125 211.472656 102.488281 211.980469 102.828125 C 212.484375 103.167969 212.953125 103.550781 213.382812 103.984375 C 213.8125 104.414062 214.195312 104.882812 214.535156 105.390625 C 214.871094 105.898438 215.15625 106.433594 215.386719 106.996094 C 215.617188 107.558594 215.789062 108.136719 215.90625 108.734375 C 216.023438 109.332031 216.082031 109.9375 216.078125 110.542969 Z M 216.078125 110.542969 " fill-opacity="1" fill-rule="nonzero"/><path fill="#000000" d="M 174.617188 128.84375 C 174.617188 128.84375 181.886719 142.640625 187.570312 142.640625 C 193.25 142.640625 200.519531 128.84375 200.519531 128.84375 " fill-opacity="1" fill-rule="nonzero"/></svg>